<mxfile host="app.diagrams.net" modified="2024-06-05T09:23:51.242Z" agent="Mozilla/5.0 (Windows NT 10.0; Win64; x64) AppleWebKit/537.36 (KHTML, like Gecko) Chrome/122.0.0.0 YaBrowser/24.4.0.0 Safari/537.36" etag="_qFoqZQNp4RjHPfe_yw7" version="24.4.13" type="device">
  <diagram name="Страница — 1" id="b9NpwQzQ4F6zZBPZKTfn">
    <mxGraphModel dx="2000" dy="1840" grid="1" gridSize="10" guides="1" tooltips="1" connect="1" arrows="1" fold="1" page="1" pageScale="1" pageWidth="827" pageHeight="1169" math="0" shadow="0">
      <root>
        <mxCell id="0" />
        <mxCell id="1" parent="0" />
        <mxCell id="qZiz0o5vtH5z7MSPpdZh-1" value="" style="endArrow=none;dashed=1;html=1;dashPattern=1 3;strokeWidth=2;rounded=0;entryX=0.5;entryY=1;entryDx=0;entryDy=0;" parent="1" source="qZiz0o5vtH5z7MSPpdZh-5" target="qZiz0o5vtH5z7MSPpdZh-3" edge="1">
          <mxGeometry width="50" height="50" relative="1" as="geometry">
            <mxPoint x="-440" y="-480" as="sourcePoint" />
            <mxPoint x="-680" y="-1040" as="targetPoint" />
          </mxGeometry>
        </mxCell>
        <mxCell id="qZiz0o5vtH5z7MSPpdZh-2" value="" style="endArrow=none;dashed=1;html=1;dashPattern=1 3;strokeWidth=2;rounded=0;entryX=0.5;entryY=1;entryDx=0;entryDy=0;" parent="1" source="qZiz0o5vtH5z7MSPpdZh-12" target="qZiz0o5vtH5z7MSPpdZh-4" edge="1">
          <mxGeometry width="50" height="50" relative="1" as="geometry">
            <mxPoint x="-199" y="-440" as="sourcePoint" />
            <mxPoint x="-110" y="-1050" as="targetPoint" />
          </mxGeometry>
        </mxCell>
        <mxCell id="qZiz0o5vtH5z7MSPpdZh-3" value="&lt;font style=&quot;font-size: 18px;&quot;&gt;:App&lt;/font&gt;" style="rounded=0;whiteSpace=wrap;html=1;" parent="1" vertex="1">
          <mxGeometry x="-537" y="-1090" width="115" height="50" as="geometry" />
        </mxCell>
        <mxCell id="qZiz0o5vtH5z7MSPpdZh-4" value="&lt;font style=&quot;font-size: 18px;&quot;&gt;:Server&lt;/font&gt;" style="rounded=0;whiteSpace=wrap;html=1;" parent="1" vertex="1">
          <mxGeometry x="-300" y="-1090" width="117" height="50" as="geometry" />
        </mxCell>
        <mxCell id="qZiz0o5vtH5z7MSPpdZh-9" value="" style="endArrow=classic;html=1;rounded=0;entryX=0;entryY=0;entryDx=0;entryDy=0;exitX=1;exitY=0;exitDx=0;exitDy=0;" parent="1" source="qZiz0o5vtH5z7MSPpdZh-37" target="qZiz0o5vtH5z7MSPpdZh-5" edge="1">
          <mxGeometry width="50" height="50" relative="1" as="geometry">
            <mxPoint x="-680" y="-1000" as="sourcePoint" />
            <mxPoint x="-600" y="-790" as="targetPoint" />
          </mxGeometry>
        </mxCell>
        <mxCell id="qZiz0o5vtH5z7MSPpdZh-12" value="" style="rounded=0;whiteSpace=wrap;html=1;" parent="1" vertex="1">
          <mxGeometry x="-251.5" y="-1000" width="20" height="40" as="geometry" />
        </mxCell>
        <mxCell id="qZiz0o5vtH5z7MSPpdZh-14" value="ChecktheOrder" style="text;html=1;align=center;verticalAlign=middle;whiteSpace=wrap;rounded=0;" parent="1" vertex="1">
          <mxGeometry x="-630" y="-1030" width="60" height="30" as="geometry" />
        </mxCell>
        <mxCell id="qZiz0o5vtH5z7MSPpdZh-16" value="LookinStorage" style="text;html=1;align=center;verticalAlign=middle;whiteSpace=wrap;rounded=0;" parent="1" vertex="1">
          <mxGeometry x="-390" y="-1030" width="60" height="30" as="geometry" />
        </mxCell>
        <mxCell id="qZiz0o5vtH5z7MSPpdZh-19" value="" style="endArrow=classic;html=1;rounded=0;exitX=1;exitY=0;exitDx=0;exitDy=0;entryX=0;entryY=0;entryDx=0;entryDy=0;" parent="1" source="qZiz0o5vtH5z7MSPpdZh-5" target="qZiz0o5vtH5z7MSPpdZh-12" edge="1">
          <mxGeometry width="50" height="50" relative="1" as="geometry">
            <mxPoint x="-468" y="-1000" as="sourcePoint" />
            <mxPoint x="-250" y="-998" as="targetPoint" />
          </mxGeometry>
        </mxCell>
        <mxCell id="qZiz0o5vtH5z7MSPpdZh-24" value="CheckPayment" style="text;html=1;align=center;verticalAlign=middle;whiteSpace=wrap;rounded=0;" parent="1" vertex="1">
          <mxGeometry x="-630" y="-790" width="60" height="30" as="geometry" />
        </mxCell>
        <mxCell id="qZiz0o5vtH5z7MSPpdZh-27" value="Confirm&lt;span style=&quot;background-color: initial;&quot;&gt;Payment&lt;/span&gt;" style="text;html=1;align=center;verticalAlign=middle;whiteSpace=wrap;rounded=0;" parent="1" vertex="1">
          <mxGeometry x="-390" y="-790" width="60" height="30" as="geometry" />
        </mxCell>
        <mxCell id="qZiz0o5vtH5z7MSPpdZh-31" value="GiveInformationaboutOrder" style="text;html=1;align=center;verticalAlign=middle;whiteSpace=wrap;rounded=0;" parent="1" vertex="1">
          <mxGeometry x="-390" y="-950" width="60" height="30" as="geometry" />
        </mxCell>
        <mxCell id="qZiz0o5vtH5z7MSPpdZh-32" value="" style="endArrow=none;dashed=1;html=1;dashPattern=1 3;strokeWidth=2;rounded=0;entryX=0.5;entryY=1;entryDx=0;entryDy=0;" parent="1" source="qZiz0o5vtH5z7MSPpdZh-44" target="qZiz0o5vtH5z7MSPpdZh-5" edge="1">
          <mxGeometry width="50" height="50" relative="1" as="geometry">
            <mxPoint x="-479" y="-480" as="sourcePoint" />
            <mxPoint x="-438" y="-1040" as="targetPoint" />
          </mxGeometry>
        </mxCell>
        <mxCell id="qZiz0o5vtH5z7MSPpdZh-5" value="" style="rounded=0;whiteSpace=wrap;html=1;" parent="1" vertex="1">
          <mxGeometry x="-491" y="-1000" width="23" height="40" as="geometry" />
        </mxCell>
        <mxCell id="qZiz0o5vtH5z7MSPpdZh-33" value="&lt;font style=&quot;font-size: 18px;&quot;&gt;:User&lt;/font&gt;" style="rounded=0;whiteSpace=wrap;html=1;" parent="1" vertex="1">
          <mxGeometry x="-777" y="-1090" width="115" height="50" as="geometry" />
        </mxCell>
        <mxCell id="qZiz0o5vtH5z7MSPpdZh-38" value="" style="endArrow=none;dashed=1;html=1;dashPattern=1 3;strokeWidth=2;rounded=0;entryX=0.5;entryY=1;entryDx=0;entryDy=0;" parent="1" target="qZiz0o5vtH5z7MSPpdZh-33" edge="1" source="I3U5EQ3lZOTP1_3P4Jj1-1">
          <mxGeometry width="50" height="50" relative="1" as="geometry">
            <mxPoint x="-719" y="-680" as="sourcePoint" />
            <mxPoint x="-719" y="-1040" as="targetPoint" />
            <Array as="points" />
          </mxGeometry>
        </mxCell>
        <mxCell id="qZiz0o5vtH5z7MSPpdZh-37" value="" style="rounded=0;whiteSpace=wrap;html=1;" parent="1" vertex="1">
          <mxGeometry x="-731" y="-1000" width="23" height="40" as="geometry" />
        </mxCell>
        <mxCell id="qZiz0o5vtH5z7MSPpdZh-39" value="" style="endArrow=classic;html=1;rounded=0;entryX=1;entryY=1;entryDx=0;entryDy=0;exitX=0;exitY=1;exitDx=0;exitDy=0;dashed=1;" parent="1" source="qZiz0o5vtH5z7MSPpdZh-12" target="qZiz0o5vtH5z7MSPpdZh-5" edge="1">
          <mxGeometry width="50" height="50" relative="1" as="geometry">
            <mxPoint x="-32" y="-900" as="sourcePoint" />
            <mxPoint x="-370" y="-900" as="targetPoint" />
          </mxGeometry>
        </mxCell>
        <mxCell id="qZiz0o5vtH5z7MSPpdZh-40" value="GiveFeedback" style="text;html=1;align=center;verticalAlign=middle;whiteSpace=wrap;rounded=0;" parent="1" vertex="1">
          <mxGeometry x="-390" y="-990" width="60" height="30" as="geometry" />
        </mxCell>
        <mxCell id="qZiz0o5vtH5z7MSPpdZh-45" value="" style="endArrow=none;dashed=1;html=1;dashPattern=1 3;strokeWidth=2;rounded=0;entryX=0.5;entryY=1;entryDx=0;entryDy=0;" parent="1" source="qZiz0o5vtH5z7MSPpdZh-56" target="qZiz0o5vtH5z7MSPpdZh-44" edge="1">
          <mxGeometry width="50" height="50" relative="1" as="geometry">
            <mxPoint x="-479" y="-480" as="sourcePoint" />
            <mxPoint x="-479" y="-960" as="targetPoint" />
          </mxGeometry>
        </mxCell>
        <mxCell id="qZiz0o5vtH5z7MSPpdZh-44" value="" style="rounded=0;whiteSpace=wrap;html=1;" parent="1" vertex="1">
          <mxGeometry x="-491" y="-840" width="23" height="40" as="geometry" />
        </mxCell>
        <mxCell id="qZiz0o5vtH5z7MSPpdZh-46" value="" style="endArrow=classic;html=1;rounded=0;entryX=0;entryY=0;entryDx=0;entryDy=0;exitX=1;exitY=0;exitDx=0;exitDy=0;" parent="1" source="qZiz0o5vtH5z7MSPpdZh-62" target="qZiz0o5vtH5z7MSPpdZh-63" edge="1">
          <mxGeometry width="50" height="50" relative="1" as="geometry">
            <mxPoint x="-708" y="-921" as="sourcePoint" />
            <mxPoint x="-491" y="-921" as="targetPoint" />
          </mxGeometry>
        </mxCell>
        <mxCell id="qZiz0o5vtH5z7MSPpdZh-47" value="GivetheBill" style="text;html=1;align=center;verticalAlign=middle;whiteSpace=wrap;rounded=0;" parent="1" vertex="1">
          <mxGeometry x="-390" y="-870" width="60" height="30" as="geometry" />
        </mxCell>
        <mxCell id="qZiz0o5vtH5z7MSPpdZh-48" value="" style="endArrow=none;dashed=1;html=1;dashPattern=1 3;strokeWidth=2;rounded=0;entryX=0.5;entryY=1;entryDx=0;entryDy=0;" parent="1" source="qZiz0o5vtH5z7MSPpdZh-63" target="qZiz0o5vtH5z7MSPpdZh-12" edge="1">
          <mxGeometry width="50" height="50" relative="1" as="geometry">
            <mxPoint x="-241" y="-480" as="sourcePoint" />
            <mxPoint x="-242.5" y="-860" as="targetPoint" />
          </mxGeometry>
        </mxCell>
        <mxCell id="qZiz0o5vtH5z7MSPpdZh-53" value="" style="shape=umlActor;verticalLabelPosition=bottom;verticalAlign=top;html=1;outlineConnect=0;" parent="1" vertex="1">
          <mxGeometry x="-734.5" y="-1150" width="30" height="60" as="geometry" />
        </mxCell>
        <mxCell id="qZiz0o5vtH5z7MSPpdZh-57" value="" style="endArrow=none;dashed=1;html=1;dashPattern=1 3;strokeWidth=2;rounded=0;entryX=0.5;entryY=1;entryDx=0;entryDy=0;" parent="1" target="qZiz0o5vtH5z7MSPpdZh-56" edge="1">
          <mxGeometry width="50" height="50" relative="1" as="geometry">
            <mxPoint x="-480" y="-680" as="sourcePoint" />
            <mxPoint x="-479" y="-880" as="targetPoint" />
          </mxGeometry>
        </mxCell>
        <mxCell id="qZiz0o5vtH5z7MSPpdZh-56" value="" style="rounded=0;whiteSpace=wrap;html=1;" parent="1" vertex="1">
          <mxGeometry x="-491" y="-760" width="23" height="40" as="geometry" />
        </mxCell>
        <mxCell id="qZiz0o5vtH5z7MSPpdZh-58" value="" style="endArrow=classic;html=1;rounded=0;entryX=0;entryY=0;entryDx=0;entryDy=0;exitX=1;exitY=0;exitDx=0;exitDy=0;" parent="1" source="qZiz0o5vtH5z7MSPpdZh-44" target="qZiz0o5vtH5z7MSPpdZh-65" edge="1">
          <mxGeometry width="50" height="50" relative="1" as="geometry">
            <mxPoint x="-420" y="-860" as="sourcePoint" />
            <mxPoint x="-290" y="-840" as="targetPoint" />
          </mxGeometry>
        </mxCell>
        <mxCell id="qZiz0o5vtH5z7MSPpdZh-60" value="" style="endArrow=none;dashed=1;html=1;dashPattern=1 3;strokeWidth=2;rounded=0;entryX=0.5;entryY=1;entryDx=0;entryDy=0;" parent="1" target="qZiz0o5vtH5z7MSPpdZh-59" edge="1">
          <mxGeometry width="50" height="50" relative="1" as="geometry">
            <mxPoint x="-241" y="-680" as="sourcePoint" />
            <mxPoint x="-241" y="-960" as="targetPoint" />
          </mxGeometry>
        </mxCell>
        <mxCell id="qZiz0o5vtH5z7MSPpdZh-59" value="" style="rounded=0;whiteSpace=wrap;html=1;" parent="1" vertex="1">
          <mxGeometry x="-251.5" y="-760" width="20" height="40" as="geometry" />
        </mxCell>
        <mxCell id="qZiz0o5vtH5z7MSPpdZh-61" value="" style="endArrow=classic;html=1;rounded=0;entryX=1;entryY=1;entryDx=0;entryDy=0;exitX=0;exitY=1;exitDx=0;exitDy=0;dashed=1;" parent="1" source="qZiz0o5vtH5z7MSPpdZh-59" target="qZiz0o5vtH5z7MSPpdZh-56" edge="1">
          <mxGeometry width="50" height="50" relative="1" as="geometry">
            <mxPoint x="-241" y="-950" as="sourcePoint" />
            <mxPoint x="-458" y="-950" as="targetPoint" />
          </mxGeometry>
        </mxCell>
        <mxCell id="qZiz0o5vtH5z7MSPpdZh-62" value="" style="rounded=0;whiteSpace=wrap;html=1;" parent="1" vertex="1">
          <mxGeometry x="-491" y="-920" width="23" height="40" as="geometry" />
        </mxCell>
        <mxCell id="qZiz0o5vtH5z7MSPpdZh-64" value="" style="endArrow=none;dashed=1;html=1;dashPattern=1 3;strokeWidth=2;rounded=0;entryX=0.5;entryY=1;entryDx=0;entryDy=0;" parent="1" source="qZiz0o5vtH5z7MSPpdZh-65" target="qZiz0o5vtH5z7MSPpdZh-63" edge="1">
          <mxGeometry width="50" height="50" relative="1" as="geometry">
            <mxPoint x="-241" y="-760" as="sourcePoint" />
            <mxPoint x="-241" y="-960" as="targetPoint" />
          </mxGeometry>
        </mxCell>
        <mxCell id="qZiz0o5vtH5z7MSPpdZh-63" value="" style="rounded=0;whiteSpace=wrap;html=1;" parent="1" vertex="1">
          <mxGeometry x="-251.5" y="-920" width="20" height="40" as="geometry" />
        </mxCell>
        <mxCell id="qZiz0o5vtH5z7MSPpdZh-66" value="" style="endArrow=none;dashed=1;html=1;dashPattern=1 3;strokeWidth=2;rounded=0;entryX=0.5;entryY=1;entryDx=0;entryDy=0;" parent="1" source="qZiz0o5vtH5z7MSPpdZh-59" target="qZiz0o5vtH5z7MSPpdZh-65" edge="1">
          <mxGeometry width="50" height="50" relative="1" as="geometry">
            <mxPoint x="-241" y="-760" as="sourcePoint" />
            <mxPoint x="-241" y="-880" as="targetPoint" />
          </mxGeometry>
        </mxCell>
        <mxCell id="qZiz0o5vtH5z7MSPpdZh-65" value="" style="rounded=0;whiteSpace=wrap;html=1;" parent="1" vertex="1">
          <mxGeometry x="-251.5" y="-840" width="20" height="40" as="geometry" />
        </mxCell>
        <mxCell id="qZiz0o5vtH5z7MSPpdZh-67" value="" style="endArrow=classic;html=1;rounded=0;entryX=0;entryY=0;entryDx=0;entryDy=0;exitX=1;exitY=0;exitDx=0;exitDy=0;" parent="1" source="I3U5EQ3lZOTP1_3P4Jj1-1" target="qZiz0o5vtH5z7MSPpdZh-56" edge="1">
          <mxGeometry width="50" height="50" relative="1" as="geometry">
            <mxPoint x="-458" y="-830" as="sourcePoint" />
            <mxPoint x="-241" y="-830" as="targetPoint" />
          </mxGeometry>
        </mxCell>
        <mxCell id="I3U5EQ3lZOTP1_3P4Jj1-2" value="" style="endArrow=none;dashed=1;html=1;dashPattern=1 3;strokeWidth=2;rounded=0;entryX=0.5;entryY=1;entryDx=0;entryDy=0;" edge="1" parent="1" target="I3U5EQ3lZOTP1_3P4Jj1-1">
          <mxGeometry width="50" height="50" relative="1" as="geometry">
            <mxPoint x="-719" y="-680" as="sourcePoint" />
            <mxPoint x="-719" y="-1040" as="targetPoint" />
            <Array as="points" />
          </mxGeometry>
        </mxCell>
        <mxCell id="I3U5EQ3lZOTP1_3P4Jj1-1" value="" style="rounded=0;whiteSpace=wrap;html=1;" vertex="1" parent="1">
          <mxGeometry x="-731" y="-760" width="23" height="40" as="geometry" />
        </mxCell>
        <mxCell id="I3U5EQ3lZOTP1_3P4Jj1-3" value="" style="endArrow=classic;html=1;rounded=0;entryX=0;entryY=0;entryDx=0;entryDy=0;exitX=1;exitY=0;exitDx=0;exitDy=0;" edge="1" parent="1" source="qZiz0o5vtH5z7MSPpdZh-56" target="qZiz0o5vtH5z7MSPpdZh-59">
          <mxGeometry width="50" height="50" relative="1" as="geometry">
            <mxPoint x="-458" y="-830" as="sourcePoint" />
            <mxPoint x="-241" y="-830" as="targetPoint" />
          </mxGeometry>
        </mxCell>
        <mxCell id="I3U5EQ3lZOTP1_3P4Jj1-4" value="SendResult" style="text;html=1;align=center;verticalAlign=middle;whiteSpace=wrap;rounded=0;" vertex="1" parent="1">
          <mxGeometry x="-390" y="-750" width="60" height="30" as="geometry" />
        </mxCell>
      </root>
    </mxGraphModel>
  </diagram>
</mxfile>
